
<svg width="4000px" height="2671px" viewBox="-5 -122 1032 689" version="1.1" xmlns="http://www.w3.org/2000/svg" xmlns:xlink="http://www.w3.org/1999/xlink">
    <!-- Generator: Sketch 40.3 (33839) - http://www.bohemiancoding.com/sketch -->
    <desc>Created with Sketch.</desc>
    <defs>
        <polygon id="path-1" points="0.0990218329 0.699481047 0.0990218329 278.347581 138.826314 278.347581 138.826314 0.699481047 0.0990218329 0.699481047"></polygon>
        <polygon id="path-3" points="158.32678 278.295347 158.32678 0.647247631 0.202831568 0.647247631 0.202831568 278.295347 158.32678 278.295347"></polygon>
        <polygon id="path-5" points="251.122792 278.06339 251.122792 0.415290025 0.0421458013 0.415290025 0.0421458013 278.06339 251.122792 278.06339"></polygon>
        <polygon id="path-7" points="87.6670256 166.59264 87.6670256 0.473193516 0.396409642 0.473193516 0.396409642 166.59264 87.6670256 166.59264"></polygon>
    </defs>
    <g id="Page-1" stroke="none" stroke-width="1" fill="none" fill-rule="evenodd" transform="translate(-5.000000, -122.000000)">
        <polygon id="Fill-1" points="0.0990218329 686.422693 1030.31083 686.422693 1030.31083 0 0.0990218329 0"></polygon>
        <g id="Group-37" transform="translate(0.000000, 76.460100)">
            <g id="Group-5">
                <mask id="mask-2" fill="white">
                    <use xlink:href="#path-1"></use>
                </mask>
                <g id="Clip-4"></g>
                <path d="M138.826314,139.523531 C138.826314,216.193252 76.7165609,278.347581 0.0979916211,278.347581 C-76.5188606,278.347581 -138.628614,216.193252 -138.628614,139.523531 C-138.628614,62.8538102 -76.5188606,0.699481047 0.0979916211,0.699481047 C76.7165609,0.699481047 138.826314,62.8538102 138.826314,139.523531" id="Fill-3" fill="#FFFEEC" mask="url(#mask-2)"></path>
            </g>
            <path d="M299.790384,252.67709 C299.790384,329.346811 237.678914,391.50114 161.062062,391.50114 C84.4452099,391.50114 22.3354569,329.346811 22.3354569,252.67709 C22.3354569,176.00737 84.4452099,113.85304 161.062062,113.85304 C237.678914,113.85304 299.790384,176.00737 299.790384,252.67709" id="Fill-6" fill="#FFFEEC"></path>
            <path d="M582.454234,304.282675 C582.454234,380.952396 520.344481,443.106725 443.725912,443.106725 C367.10906,443.106725 304.999307,380.952396 304.999307,304.282675 C304.999307,227.612954 367.10906,165.458625 443.725912,165.458625 C520.344481,165.458625 582.454234,227.612954 582.454234,304.282675" id="Fill-8" fill="#FFFEEC"></path>
            <path d="M791.897325,302.261207 C791.897325,378.930928 729.787572,441.085257 653.169003,441.085257 C576.552151,441.085257 514.442398,378.930928 514.442398,302.261207 C514.442398,225.591487 576.552151,163.437157 653.169003,163.437157 C729.787572,163.437157 791.897325,225.591487 791.897325,302.261207" id="Fill-10" fill="#FFFEEC"></path>
            <path d="M854.535749,238.411869 C854.535749,291.552498 811.486631,334.631321 758.382647,334.631321 C705.278662,334.631321 662.229544,291.552498 662.229544,238.411869 C662.229544,185.271241 705.278662,142.192418 758.382647,142.192418 C811.486631,142.192418 854.535749,185.271241 854.535749,238.411869" id="Fill-12" fill="#FFFEEC"></path>
            <g id="Group-16" transform="translate(871.984051, 41.236908)">
                <mask id="mask-4" fill="white">
                    <use xlink:href="#path-3"></use>
                </mask>
                <g id="Clip-15"></g>
                <path d="M277.657759,139.471298 C277.657759,216.141018 215.548006,278.295347 138.929437,278.295347 C62.3125845,278.295347 0.202831568,216.141018 0.202831568,139.471298 C0.202831568,62.8015768 62.3125845,0.647247631 138.929437,0.647247631 C215.548006,0.647247631 277.657759,62.8015768 277.657759,139.471298" id="Fill-14" fill="#FFFEEC" mask="url(#mask-4)"></path>
            </g>
            <g id="Group-19" transform="translate(779.188039, 120.274314)">
                <mask id="mask-6" fill="white">
                    <use xlink:href="#path-5"></use>
                </mask>
                <g id="Clip-18"></g>
                <path d="M277.497073,139.23934 C277.497073,215.909061 215.385603,278.06339 138.768751,278.06339 C62.1518988,278.06339 0.0421458013,215.909061 0.0421458013,139.23934 C0.0421458013,62.5696192 62.1518988,0.415290025 138.768751,0.415290025 C215.385603,0.415290025 277.497073,62.5696192 277.497073,139.23934" id="Fill-17" fill="#FFFEEC" mask="url(#mask-6)"></path>
            </g>
            <path d="M458.887883,288.187051 C458.887883,364.856771 396.776413,427.0111 320.159561,427.0111 C243.542708,427.0111 181.431238,364.856771 181.431238,288.187051 C181.431238,211.51733 243.542708,149.363001 320.159561,149.363001 C396.776413,149.363001 458.887883,211.51733 458.887883,288.187051" id="Fill-20" fill="#FFFEEC"></path>
            <path d="M215.166898,152.824839 C215.166898,198.501587 178.163406,235.530612 132.518155,235.530612 C86.871187,235.530612 49.8676958,198.501587 49.8676958,152.824839 C49.8676958,107.148091 86.871187,70.1190661 132.518155,70.1190661 C178.163406,70.1190661 215.166898,107.148091 215.166898,152.824839" id="Fill-22" fill="#FFFEEC"></path>
            <path d="M351.798911,211.020082 C351.798911,256.69683 314.795419,293.725855 269.150168,293.725855 C223.5032,293.725855 186.499709,256.69683 186.499709,211.020082 C186.499709,165.343333 223.5032,128.314308 269.150168,128.314308 C314.795419,128.314308 351.798911,165.343333 351.798911,211.020082" id="Fill-24" fill="#FFFEEC"></path>
            <path d="M929.837707,211.020082 C929.837707,256.69683 892.834216,293.725855 847.188965,293.725855 C801.541997,293.725855 764.538505,256.69683 764.538505,211.020082 C764.538505,165.343333 801.541997,128.314308 847.188965,128.314308 C892.834216,128.314308 929.837707,165.343333 929.837707,211.020082" id="Fill-26" fill="#FFFEEC"></path>
            <path d="M168.948505,70.1185506 C168.948505,99.0548324 145.506036,122.513478 116.589707,122.513478 C87.6733786,122.513478 64.2326259,99.0548324 64.2326259,70.1185506 C64.2326259,41.1822688 87.6733786,17.7236229 116.589707,17.7236229 C145.506036,17.7236229 168.948505,41.1822688 168.948505,70.1185506" id="Fill-28" fill="#FFFEEC"></path>
            <path d="M372.518187,165.45914 C372.518187,194.395422 349.077434,217.854068 320.159389,217.854068 C291.24306,217.854068 267.802308,194.395422 267.802308,165.45914 C267.802308,136.522859 291.24306,113.064213 320.159389,113.064213 C349.077434,113.064213 372.518187,136.522859 372.518187,165.45914" id="Fill-30" fill="#FFFEEC"></path>
            <path d="M948.093232,120.689948 C948.093232,149.62623 924.650763,173.084876 895.734434,173.084876 C866.818106,173.084876 843.377353,149.62623 843.377353,120.689948 C843.377353,91.7536661 866.818106,68.2950202 895.734434,68.2950202 C924.650763,68.2950202 948.093232,91.7536661 948.093232,120.689948" id="Fill-32" fill="#FFFEEC"></path>
            <g id="Group-36" transform="translate(942.643805, 8.591022)">
                <mask id="mask-8" fill="white">
                    <use xlink:href="#path-7"></use>
                </mask>
                <g id="Clip-35"></g>
                <path d="M166.39959,83.5329167 C166.39959,129.40554 129.238133,166.59264 83.3971411,166.59264 C37.5561496,166.59264 0.396409642,129.40554 0.396409642,83.5329167 C0.396409642,37.6602933 37.5561496,0.473193516 83.3971411,0.473193516 C129.238133,0.473193516 166.39959,37.6602933 166.39959,83.5329167" id="Fill-34" fill="#FFFEEC" mask="url(#mask-8)"></path>
            </g>
        </g>
        <polygon id="Fill-38" fill="#DFE7F0" points="966.098931 302.83629 887.28601 266.996263 861.985725 278.50136 769.38342 236.393323 733.964738 252.499772 723.597373 247.7833 653.580744 279.623348 637.746389 272.422353 550.59047 312.054457 483.214618 281.417153 463.805427 290.24357 385.916263 254.822784 351.004102 270.698994 316.090224 254.822784 310.027427 257.580502 263.436098 236.393323 161.360995 282.810617 126.586196 266.996263 118.821833 270.527173 95.5768202 259.956779 63.7312561 274.439525 0.098506727 245.501525 0.098506727 303.375806 0.098506727 316.654091 0.098506727 327.399742 0.098506727 686.422006 1030.31032 686.422006 1030.31032 384.818699 1030.31032 273.637123"></polygon>
        <polygon id="Fill-39" fill="#B1D2EC" points="962.773751 277.253772 890.658924 309.569762 818.544097 277.253772 758.719697 304.061198 724.269415 288.623131 711.21148 294.475335 607.160087 247.846702 593.777636 253.844954 509.289965 215.984318 354.086839 285.532081 340.450269 279.420428 304.998964 295.306946 262.993794 276.484016 194.853868 307.018228 172.563518 297.030305 157.062265 303.975288 62.4836696 261.592338 14.6749736 283.01663 0.0991935348 276.484016 0.0991935348 289.549243 0.0991935348 332.294734 0.0991935348 375.1416 0.0991935348 686.421834 1030.311 686.421834 1030.311 344.10739 1030.311 307.518226"></polygon>
        <polygon id="Fill-40" points="758.719526 304.062057 724.269243 288.62399 711.211308 294.474476 607.159915 247.847561 593.777464 253.844095 570.721324 267.467738 578.341457 246.926603 509.289794 215.983459 531.801639 253.722102 509.289794 253.722102 515.204926 295.96416 489.449631 308.704646 570.721324 331.613466 639.402111 360.250781 639.402111 343.640898 592.470812 308.704646 594.759599 288.11712 609.641009 302.976152 693.201489 333.903833 714.950977 360.250781 709.22815 323.594606"></polygon>
        <polygon id="Fill-42" points="818.543926 277.252913 827.129024 299.539743 822.836475 314.431421 848.878512 325.886691 890.658752 309.568903"></polygon>
        <polygon id="Fill-44" points="962.773579 277.252913 981.660795 301.570661 994.253418 309.84897 978.513498 335.049875 1030.31083 344.108249 1030.31083 307.517367"></polygon>
        <polygon id="Fill-46" points="340.450097 279.421287 332.627356 301.570661 354.086668 285.53294"></polygon>
        <polygon id="Fill-48" points="262.993622 276.484875 251.355663 290.495115 262.993622 301.570661 257.174643 319.013873 304.998792 295.307805"></polygon>
        <polygon id="Fill-50" points="172.563347 297.029446 178.095584 310.680581 172.563347 319.013873 194.853696 307.019087"></polygon>
        <polygon id="Fill-52" points="62.4834979 261.593197 75.0744033 276.484875 68.7798091 290.495115 83.0877341 297.029446 62.4834979 325.886691 103.69197 310.680581 119.716915 319.013873 157.062093 303.976147"></polygon>
        <polygon id="Fill-54" fill="#8AB3D7" points="966.677051 360.34889 934.831487 345.867863 911.588192 356.438257 903.823829 352.907346 888.949287 359.670199 854.602026 343.64107 834.512895 353.015593 766.973926 322.302688 720.38088 343.489868 714.318084 340.733868 679.405922 356.610077 644.492044 340.733868 566.60288 376.152935 547.195407 367.326518 519.472407 379.932985 464.359509 354.211464 424.504049 372.811027 392.663636 358.331718 376.827563 365.532713 306.812651 333.694384 296.44357 338.409137 261.024888 322.302688 168.424299 364.412444 143.122297 352.907346 94.3108616 375.103112 62.4841847 360.249234 32.4586616 374.26291 0.0979916211 359.546489 0.0979916211 384.819558 0.0979916211 389.364209 0.0979916211 438.76087 0.0979916211 686.422865 1030.3098 686.422865 1030.3098 413.309107 1030.3098 402.565174 1030.3098 389.285172 1030.3098 331.412608"></polygon>
        <polygon id="Fill-55" fill="#8AB3D7" points="442.950163 372.284741 438.630141 363.016746 440.874286 363.016746 437.225619 355.186888 439.133228 355.186888 435.858871 348.159432 437.586193 348.159432 433.576952 339.554664 429.565994 348.159432 431.293316 348.159432 428.01896 355.186888 429.926568 355.186888 426.277902 363.016746 428.522046 363.016746 424.202025 372.284741"></polygon>
        <polygon id="Fill-56" fill="#8AB3D7" points="573.010798 377.325266 569.410208 369.601937 571.280042 369.601937 568.2392 363.076196 569.830877 363.076196 567.100816 357.218837 568.539679 357.218837 565.198358 350.047051 561.857038 357.218837 563.2959 357.218837 560.565839 363.076196 562.157516 363.076196 559.116675 369.601937 560.986509 369.601937 557.385919 377.325266"></polygon>
        <polygon id="Fill-57" fill="#8AB3D7" points="668.794226 363.686502 665.193635 355.963173 667.06347 355.963173 664.022628 349.437432 665.614305 349.437432 662.884244 343.580073 664.323106 343.580073 660.981786 336.410006 657.640466 343.580073 659.079328 343.580073 656.349267 349.437432 657.940944 349.437432 654.900102 355.963173 656.769937 355.963173 653.169347 363.686502"></polygon>
        <polygon id="Fill-58" fill="#8AB3D7" points="684.419105 370.918425 680.818515 363.195096 682.688349 363.195096 679.647507 356.669355 681.239184 356.669355 678.509123 350.811996 679.947986 350.811996 676.606665 343.64021 673.265345 350.811996 674.704207 350.811996 671.974146 356.669355 673.565823 356.669355 670.524982 363.195096 672.394816 363.195096 668.794226 370.918425"></polygon>
        <polygon id="Fill-59" fill="#8AB3D7" points="928.703787 369.558638 925.104914 361.835309 926.973032 361.835309 923.93219 355.309568 925.523867 355.309568 922.793806 349.452209 924.232668 349.452209 920.891348 342.280423 917.550028 349.452209 918.98889 349.452209 916.260546 355.309568 917.850506 355.309568 914.809664 361.835309 916.679499 361.835309 913.078908 369.558638"></polygon>
        <polygon id="Fill-60" fill="#8AB3D7" points="992.150755 359.99683 988.550165 352.273501 990.42 352.273501 987.379158 345.74776 988.969118 345.74776 986.240774 339.890401 987.679636 339.890401 984.338316 332.718615 980.996996 339.890401 982.435858 339.890401 979.705797 345.74776 981.297474 345.74776 978.256632 352.273501 980.126467 352.273501 976.525876 359.99683"></polygon>
        <polygon id="Fill-61" fill="#8AB3D7" points="1024.09968 353.598924 1020.50081 345.875595 1022.36893 345.875595 1019.32809 339.349854 1020.91976 339.349854 1018.1897 333.492495 1019.62856 333.492495 1016.28724 326.322427 1012.94592 333.492495 1014.38479 333.492495 1011.65644 339.349854 1013.2464 339.349854 1010.20556 345.875595 1012.0754 345.875595 1008.4748 353.598924"></polygon>
        <polygon id="Fill-62" fill="#8AB3D7" points="465.410841 368.108473 461.03244 358.715049 463.322945 358.715049 459.392687 350.282102 461.465129 350.282102 456.655757 339.960847 451.844668 350.282102 453.917111 350.282102 449.986853 358.715049 452.277357 358.715049 447.898957 368.108473"></polygon>
        <polygon id="Fill-63" fill="#8AB3D7" points="346.3642 357.285503 341.9858 347.892079 344.276304 347.892079 340.346046 339.459132 342.418489 339.459132 337.607399 329.137877 332.798027 339.459132 334.87047 339.459132 330.940212 347.892079 333.230716 347.892079 328.852316 357.285503"></polygon>
        <polygon id="Fill-64" fill="#8AB3D7" points="537.247853 392.795464 532.869453 383.40204 535.159957 383.40204 531.229699 374.969092 533.302142 374.969092 528.49277 364.647838 523.681681 374.969092 525.754124 374.969092 521.823866 383.40204 524.11437 383.40204 519.73597 392.795464"></polygon>
        <polygon id="Fill-65" fill="#8AB3D7" points="601.350036 374.32425 596.971636 364.930826 599.26214 364.930826 595.331882 356.497878 597.404325 356.497878 592.594953 346.176624 587.783863 356.497878 589.856306 356.497878 585.926048 364.930826 588.216552 364.930826 583.838152 374.32425"></polygon>
        <polygon id="Fill-66" fill="#8AB3D7" points="621.09851 364.121895 616.720109 354.728471 619.010614 354.728471 615.080356 346.295524 617.152798 346.295524 612.343426 335.974269 607.532337 346.295524 609.60478 346.295524 605.674522 354.728471 607.965026 354.728471 603.586626 364.121895"></polygon>
        <polygon id="Fill-67" fill="#8AB3D7" points="920.234588 364.121895 915.856188 354.728471 918.146692 354.728471 914.216434 346.295524 916.288877 346.295524 911.479505 335.974269 906.668415 346.295524 908.740858 346.295524 904.8106 354.728471 907.101104 354.728471 902.722704 364.121895"></polygon>
        <polygon id="Fill-68" fill="#8AB3D7" points="959.062412 364.121895 954.684012 354.728471 956.974517 354.728471 953.044258 346.295524 955.116701 346.295524 950.307329 335.974269 945.49624 346.295524 947.568683 346.295524 943.638425 354.728471 945.928929 354.728471 941.550529 364.121895"></polygon>
        <polygon id="Fill-69" fill="#8AB3D7" points="1005.2978 364.121895 1000.9194 354.728471 1003.20991 354.728471 999.279649 346.295524 1001.35381 346.295524 996.54272 335.974269 991.731631 346.295524 993.804074 346.295524 989.873816 354.728471 992.16432 354.728471 987.78592 364.121895"></polygon>
        <polygon id="Fill-70" fill="#8AB3D7" points="291.41957 344.593299 287.04117 335.199875 289.331674 335.199875 285.401416 326.766927 287.473859 326.766927 282.66277 316.445673 277.853397 326.766927 279.92584 326.766927 275.995582 335.199875 278.286086 335.199875 273.907686 344.593299"></polygon>
        <polygon id="Fill-71" fill="#8AB3D7" points="238.579319 340.616342 234.820763 332.549372 236.786751 332.549372 233.41109 325.308859 235.19164 325.308859 231.06049 316.444642 226.929341 325.308859 228.70989 325.308859 225.33423 332.549372 227.301934 332.549372 223.541661 340.616342"></polygon>
        <polygon id="Fill-72" fill="#8AB3D7" points="699.45642 358.261615 695.697864 350.194645 697.663851 350.194645 694.288191 342.954131 696.06874 342.954131 691.937591 334.089914 687.806441 342.954131 689.586991 342.954131 686.21133 350.194645 688.179034 350.194645 684.418761 358.261615"></polygon>
        <polygon id="Fill-73" fill="#8AB3D7" points="910.241705 362.133417 906.481432 354.066447 908.449136 354.066447 905.073476 346.825933 906.854025 346.825933 902.722876 337.961716 898.591727 346.825933 900.372276 346.825933 896.996615 354.066447 898.96432 354.066447 895.204047 362.133417"></polygon>
        <polygon id="Fill-74" fill="#8AB3D7" points="984.044534 365.684602 980.285978 357.617632 982.251965 357.617632 978.876304 350.377118 980.656854 350.377118 976.525705 341.512901 972.394555 350.377118 974.175105 350.377118 970.799444 357.617632 972.767148 357.617632 969.006875 365.684602"></polygon>
        <polygon id="Fill-75" fill="#8AB3D7" points="195.004451 365.287697 191.245895 357.220727 193.211882 357.220727 189.836221 349.980213 191.616771 349.980213 187.485621 341.115996 183.354472 349.980213 185.135021 349.980213 181.759361 357.220727 183.727065 357.220727 179.966792 365.287697"></polygon>
        <polygon id="Fill-76" fill="#8AB3D7" points="224.345226 348.047577 219.565044 337.791614 222.065024 337.791614 217.775909 328.587193 220.038941 328.587193 214.786578 317.31749 209.534215 328.587193 211.797246 328.587193 207.506414 337.791614 210.006395 337.791614 205.227929 348.047577"></polygon>
        <polygon id="Fill-77" fill="#8AB3D7" points="304.998448 339.960332 300.620048 330.566908 302.910553 330.566908 298.980294 322.13396 301.052737 322.13396 296.243365 311.812706 291.432276 322.13396 293.504719 322.13396 289.574461 330.566908 291.864965 330.566908 287.486565 339.960332"></polygon>
        <polygon id="Fill-78" fill="#74A8C6" points="609.069585 391.844437 591.966352 383.863378 575.130974 391.720727 546.024056 378.136602 536.661148 382.504278 507.664119 368.971699 470.868388 386.145153 389.301368 348.074896 379.876647 352.475218 354.087011 340.439196 296.496454 367.317068 278.177571 358.767283 236.824869 378.066156 172.56369 348.074896 156.07515 355.772452 109.77228 334.162595 68.7252079 353.318856 0.0993652368 321.291525 0.0993652368 385.347906 0.0993652368 428.564186 0.0993652368 456.754767 0.0993652368 472.144724 0.0993652368 492.673831 0.0993652368 688.14021 1030.31117 688.14021 1030.31117 541.120325 1030.31117 521.290527 1030.31117 437.703315 1030.31117 419.791033 1030.31117 405.820313 1030.31117 365.581682 987.200244 385.700138 951.354024 368.971699 936.388481 375.9562 846.835602 334.162595 836.384103 339.040577 779.29835 312.399816"></polygon>
        <polygon id="Fill-79" fill="#74A8C6" points="724.063887 352.212848 728.991734 341.639018 726.431657 341.639018 730.59543 332.706073 728.418249 332.706073 732.154484 324.687212 730.183345 324.687212 734.759203 314.87111 739.333343 324.687212 737.362205 324.687212 741.09844 332.706073 738.921259 332.706073 743.085031 341.639018 740.524955 341.639018 745.452801 352.212848"></polygon>
        <polygon id="Fill-80" fill="#74A8C6" points="793.748788 340.973557 798.676634 330.399727 796.116558 330.399727 800.280331 321.466782 798.10315 321.466782 801.839384 313.447921 799.868246 313.447921 804.444103 303.633537 809.018244 313.447921 807.047105 313.447921 810.78334 321.466782 808.606159 321.466782 812.769932 330.399727 810.209855 330.399727 815.137702 340.973557"></polygon>
        <polygon id="Fill-81" fill="#74A8C6" points="758.382647 330.482372 763.310493 319.908542 760.750417 319.908542 764.914189 310.975597 762.737008 310.975597 766.473243 302.956736 764.502105 302.956736 769.077962 293.142352 773.652103 302.956736 771.680964 302.956736 775.417199 310.975597 773.240018 310.975597 777.403791 319.908542 774.843714 319.908542 779.771561 330.482372"></polygon>
        <polygon id="Fill-82" fill="#74A8C6" points="955.112752 389.588779 960.040599 379.014948 957.480522 379.014948 961.644295 370.082003 959.467114 370.082003 963.203349 362.063143 961.23221 362.063143 965.808068 352.24704 970.382208 362.063143 968.41107 362.063143 972.147304 370.082003 969.970123 370.082003 974.133896 379.014948 971.57382 379.014948 976.501666 389.588779"></polygon>
        <polygon id="Fill-83" fill="#74A8C6" points="480.536067 383.668877 484.643178 374.856206 482.51064 374.856206 485.979019 367.411226 484.164129 367.411226 487.278803 360.729129 485.635615 360.729129 489.449116 352.548757 493.262617 360.729129 491.619429 360.729129 494.734103 367.411226 492.919213 367.411226 496.387593 374.856206 494.255054 374.856206 498.362165 383.668877"></polygon>
        <polygon id="Fill-84" fill="#74A8C6" points="492.24099 379.246906 496.348101 370.434235 494.215563 370.434235 497.683942 362.989255 495.869053 362.989255 498.983726 356.307158 497.340539 356.307158 501.154039 348.126786 504.96754 356.307158 503.324352 356.307158 506.439026 362.989255 504.624136 362.989255 508.094233 370.434235 505.959977 370.434235 510.067088 379.246906"></polygon>
        <polygon id="Fill-85" fill="#74A8C6" points="543.66676 386.137765 547.773871 377.325094 545.641332 377.325094 549.109712 369.880114 547.294822 369.880114 550.409496 363.198017 548.768025 363.198017 552.579809 355.017645 556.39331 363.198017 554.750122 363.198017 557.864796 369.880114 556.049906 369.880114 559.520002 377.325094 557.385747 377.325094 561.492858 386.137765"></polygon>
        <polygon id="Fill-86" fill="#74A8C6" points="160.957667 362.697504 165.064778 353.884833 162.93224 353.884833 166.40062 346.439853 164.58573 346.439853 167.700404 339.757756 166.057216 339.757756 169.870716 331.577384 173.684217 339.757756 172.041029 339.757756 175.155703 346.439853 173.340813 346.439853 176.809193 353.884833 174.676655 353.884833 178.783766 362.697504"></polygon>
        <polygon id="Fill-87" fill="#74A8C6" points="88.5715516 353.753906 92.6786627 344.941235 90.5461242 344.941235 94.014504 337.496255 92.1996142 337.496255 95.3142879 330.814158 93.6728171 330.814158 97.4846007 322.633786 101.298101 330.814158 99.6549136 330.814158 102.769587 337.496255 100.954698 337.496255 104.423077 344.941235 102.290539 344.941235 106.39765 353.753906"></polygon>
        <polygon id="Fill-88" fill="#74A8C6" points="40.9553335 348.242765 45.0624445 339.430094 42.9299061 339.430094 46.3982859 331.985114 44.583396 331.985114 47.6980698 325.303017 46.0565989 325.303017 49.8683826 317.122645 53.6818833 325.303017 52.0386955 325.303017 55.1533692 331.985114 53.3384794 331.985114 56.8085762 339.430094 54.6743207 339.430094 58.7814318 348.242765"></polygon>
        <polygon id="Fill-89" fill="#74A8C6" points="694.998178 356.017297 699.992988 345.300855 697.381401 345.300855 701.86454 335.680628 699.498487 335.680628 704.987799 323.904055 710.475394 335.680628 708.111057 335.680628 712.594196 345.300855 709.982609 345.300855 714.977419 356.017297"></polygon>
        <polygon id="Fill-90" fill="#74A8C6" points="864.785154 354.250639 869.779965 343.534197 867.166661 343.534197 871.651516 333.91397 869.285463 333.91397 874.774775 322.137397 880.264087 333.91397 877.898034 333.91397 882.381172 343.534197 879.769585 343.534197 884.764395 354.250639"></polygon>
        <polygon id="Fill-91" fill="#74A8C6" points="614.094958 396.761423 619.089768 386.044982 616.476464 386.044982 620.96132 376.424755 618.595267 376.424755 624.084578 364.646463 629.572173 376.424755 627.207837 376.424755 631.690976 386.044982 629.079389 386.044982 634.074199 396.761423"></polygon>
        <polygon id="Fill-92" fill="#74A8C6" points="646.533409 379.743639 651.528219 369.027197 648.914915 369.027197 653.399771 359.40697 651.033717 359.40697 656.523029 347.628679 662.010624 359.40697 659.646288 359.40697 664.129427 369.027197 661.51784 369.027197 666.51265 379.743639"></polygon>
        <polygon id="Fill-93" fill="#74A8C6" points="573.848875 399.068628 578.843685 388.352187 576.230381 388.352187 580.715237 378.73196 578.349184 378.73196 583.838496 366.953668 589.326091 378.73196 586.961754 378.73196 591.444893 388.352187 588.833306 388.352187 593.828116 399.068628"></polygon>
        <polygon id="Fill-94" fill="#74A8C6" points="510.826183 386.97539 515.820993 376.258948 513.207689 376.258948 517.692545 366.638721 515.326491 366.638721 520.815803 354.862148 526.303398 366.638721 523.939062 366.638721 528.422201 376.258948 525.810614 376.258948 530.805424 386.97539"></polygon>
        <polygon id="Fill-95" fill="#74A8C6" points="173.719416 369.259327 178.714226 358.542885 176.100922 358.542885 180.585778 348.922658 178.219725 348.922658 183.709037 337.144367 189.196632 348.922658 186.832295 348.922658 191.315434 358.542885 188.703847 358.542885 193.698657 369.259327"></polygon>
        <polygon id="Fill-96" fill="#74A8C6" points="73.9306965 354.008715 78.9255067 343.292274 76.3122028 343.292274 80.7970582 333.672047 78.431005 333.672047 83.920317 321.893755 89.4079119 333.672047 87.0435758 333.672047 91.5267142 343.292274 88.9151272 343.292274 93.9099375 354.008715"></polygon>
        <polygon id="Fill-97" fill="#74A8C6" points="5.39602755 334.039056 10.3908378 323.322614 7.77753385 323.322614 12.2623893 313.702387 9.89633614 313.702387 15.3856481 301.925814 20.87496 313.702387 18.5089069 313.702387 22.9920453 323.322614 20.3804583 323.322614 25.3752686 334.039056"></polygon>
        <polygon id="Fill-98" fill="#74A8C6" points="931.561252 380.704287 936.556062 369.987845 933.942758 369.987845 938.427613 360.367618 936.06156 360.367618 941.550872 348.589327 947.038467 360.367618 944.674131 360.367618 949.157269 369.987845 946.545682 369.987845 951.540493 380.704287"></polygon>
        <polygon id="Fill-99" fill="#74A8C6" points="894.144817 368.039058 898.433932 358.836355 896.189788 358.836355 900.041063 350.575227 898.009829 350.575227 902.723048 340.461876 907.436267 350.575227 905.405032 350.575227 909.25459 358.836355 907.012163 358.836355 911.301278 368.039058"></polygon>
        <polygon id="Fill-100" fill="#74A8C6" points="394.011496 358.381718 398.300611 349.179014 396.056466 349.179014 399.907742 340.917887 397.876507 340.917887 402.589726 330.804536 407.302945 340.917887 405.271711 340.917887 409.121269 349.179014 406.878841 349.179014 411.167957 358.381718"></polygon>
        <polygon id="Fill-101" fill="#74A8C6" points="312.035139 362.117953 316.324254 352.91525 314.080109 352.91525 317.931384 344.654123 315.90015 344.654123 320.613369 334.540771 325.326588 344.654123 323.295354 344.654123 327.144912 352.91525 324.902484 352.91525 329.191599 362.117953"></polygon>
        <polygon id="Fill-102" fill="#74A8C6" points="245.332701 380.742775 249.621816 371.540071 247.377672 371.540071 251.228947 363.278944 249.197713 363.278944 253.910932 353.165593 258.624151 363.278944 256.592916 363.278944 260.442475 371.540071 258.200047 371.540071 262.489162 380.742775"></polygon>
        <polygon id="Fill-103" fill="#74A8C6" points="136.36531 356.06953 140.654425 346.866827 138.41028 346.866827 142.261555 338.6057 140.230321 338.6057 144.94354 328.492348 149.656759 338.6057 147.625525 338.6057 151.475083 346.866827 149.232655 346.866827 153.52177 356.06953"></polygon>
        <polygon id="Fill-104" fill="#74A8C6" points="199.512142 371.751926 203.801258 362.549223 201.557113 362.549223 205.408388 354.288096 203.377154 354.288096 208.090373 344.174744 212.803592 354.288096 210.772357 354.288096 214.621916 362.549223 212.379488 362.549223 216.668603 371.751926"></polygon>
        <polygon id="Fill-105" fill="#74A8C6" points="1010.914 375.990736 1015.20312 366.788033 1012.95897 366.788033 1016.81025 358.526906 1014.77901 358.526906 1019.49223 348.413554 1024.20545 358.526906 1022.17422 358.526906 1026.02378 366.788033 1023.78135 366.788033 1028.07046 375.990736"></polygon>
        <polygon id="Fill-106" fill="#74A8C6" points="595.856947 400.541473 601.310201 388.8405 598.458231 388.8405 603.353455 378.338835 600.771057 378.338835 606.763456 365.48151 612.754137 378.338835 610.173457 378.338835 615.06868 388.8405 612.214993 388.8405 617.668248 400.541473"></polygon>
        <polygon id="Fill-107" fill="#74A8C6" points="847.18845 343.533682 852.18326 332.81724 849.569956 332.81724 854.054811 323.197013 851.688758 323.197013 857.17807 311.418722 862.665665 323.197013 860.301329 323.197013 864.784467 332.81724 862.172881 332.81724 867.167691 343.533682"></polygon>
        <polygon id="Fill-108" fill="#3D85A1" points="0.098506727 406.351066 0.098506727 441.082852 0.098506727 452.120597 0.098506727 465.617094 0.098506727 475.426323 0.098506727 688.141757 1030.31032 688.141757 1030.31032 515.723373 1030.31032 507.264652 1030.31032 467.95557 1030.31032 379.3134 935.343674 423.634485 903.317823 408.689542 886.702224 416.443799 818.54341 384.632961 781.469521 401.936999 758.719011 391.320213 692.757983 422.103565 678.738517 415.560642 657.428586 425.507328 649.437576 421.777106 586.798981 451.012355 565.107871 440.890413 556.162199 445.06565 532.220076 433.888729 516.880223 441.048488 396.002037 384.632961 355.423711 403.572729 292.980856 374.430263 279.948677 380.512707 240.216841 361.968126 178.216977 390.90269 142.918487 374.430263 132.410326 379.334019 95.1990758 361.968126 81.342727 368.435448 0.098506727 330.519829"></polygon>
        <polygon id="Fill-109" fill="#3D85A1" points="726.07984 406.616185 734.707864 388.10425 730.226443 388.10425 737.515191 372.463434 733.703408 372.463434 740.245253 358.425704 736.794043 358.425704 744.80394 341.240222 752.813837 358.425704 749.362627 358.425704 755.904472 372.463434 752.092688 372.463434 759.381437 388.10425 754.900015 388.10425 763.528039 406.616185"></polygon>
        <polygon id="Fill-110" fill="#3D85A1" points="568.924978 467.973267 577.553002 449.461332 573.07158 449.461332 580.360329 433.820517 576.548545 433.820517 583.09039 419.782786 579.639181 419.782786 587.649077 402.597305 595.658974 419.782786 592.207765 419.782786 598.74961 433.820517 594.937826 433.820517 602.226575 449.461332 597.745153 449.461332 606.373177 467.973267"></polygon>
        <polygon id="Fill-111" fill="#3D85A1" points="444.536517 441.72168 453.164541 423.209745 448.68312 423.209745 455.971868 407.568929 452.160085 407.568929 458.70193 393.531199 455.25072 393.531199 463.260617 376.345717 471.270514 393.531199 467.819304 393.531199 474.361149 407.568929 470.549365 407.568929 477.838114 423.209745 473.356693 423.209745 481.984716 441.72168"></polygon>
        <polygon id="Fill-112" fill="#3D85A1" points="605.360135 458.738262 613.988159 440.224608 609.506738 440.224608 616.795487 424.585511 612.983703 424.585511 619.525548 410.547781 616.074338 410.547781 624.084235 393.362299 632.094132 410.547781 628.642922 410.547781 635.184767 424.585511 631.372984 424.585511 638.661732 440.224608 634.180311 440.224608 642.808335 458.738262"></polygon>
        <polygon id="Fill-113" fill="#3D85A1" points="342.32079 421.98415 349.188869 407.24711 345.622619 407.24711 351.424429 394.797 348.388738 394.797 353.598175 383.621798 350.850944 383.621798 357.226238 369.939736 363.603249 383.621798 360.854301 383.621798 366.063738 394.797 363.028048 394.797 368.831574 407.24711 365.263607 407.24711 372.131686 421.98415"></polygon>
        <polygon id="Fill-114" fill="#3D85A1" points="179.948764 409.033355 186.816842 394.296315 183.250592 394.296315 189.052402 381.846205 186.016711 381.846205 191.226149 370.671003 188.478917 370.671003 194.854211 356.988941 201.231222 370.671003 198.482274 370.671003 203.691712 381.846205 200.656021 381.846205 206.459547 394.296315 202.891581 394.296315 209.759659 409.033355"></polygon>
        <polygon id="Fill-115" fill="#3D85A1" points="116.590222 400.952811 126.835679 378.968385 121.514635 378.968385 130.170131 360.394594 125.64235 360.394594 133.413581 343.722856 129.315055 343.722856 138.825627 323.314023 148.337916 343.722856 144.23939 343.722856 152.008904 360.394594 147.48284 360.394594 156.138336 378.968385 150.815575 378.968385 161.062749 400.952811"></polygon>
        <polygon id="Fill-116" fill="#3D85A1" points="5.39602755 374.793148 15.641484 352.808721 10.32044 352.808721 18.9759362 334.234931 14.4481553 334.234931 22.2193864 317.563193 18.1208604 317.563193 27.6314324 297.15436 37.1437215 317.563193 33.0451955 317.563193 40.8147096 334.234931 36.2886457 334.234931 44.9441419 352.808721 39.6213809 352.808721 49.8685543 374.793148"></polygon>
        <polygon id="Fill-117" fill="#3D85A1" points="416.758401 423.334315 427.003857 401.349888 421.682813 401.349888 430.33831 382.776098 425.810529 382.776098 433.58176 366.10436 429.483234 366.10436 438.993806 345.695527 448.506095 366.10436 444.407569 366.10436 452.177083 382.776098 447.651019 382.776098 456.306515 401.349888 450.985471 401.349888 461.230928 423.334315"></polygon>
        <polygon id="Fill-118" fill="#3D85A1" points="281.85371 444.07373 295.859439 414.024052 288.584427 414.024052 300.41641 388.637581 294.228271 388.637581 304.848038 365.849034 299.247119 365.849034 312.248392 337.952266 325.249665 365.849034 319.64703 365.849034 330.266797 388.637581 324.078658 388.637581 335.910641 414.024052 328.637345 414.024052 342.641358 444.07373"></polygon>
        <polygon id="Fill-119" fill="#3D85A1" points="526.991923 496.388933 540.997653 466.339255 533.72264 466.339255 545.554623 440.952784 539.366484 440.952784 549.986251 418.164237 544.383615 418.164237 557.386606 390.267469 570.387879 418.164237 564.785243 418.164237 575.40501 440.952784 569.216871 440.952784 581.048854 466.339255 573.773841 466.339255 587.779571 496.388933"></polygon>
        <polygon id="Fill-120" fill="#3D85A1" points="674.593803 471.946959 688.599533 441.895562 681.32452 441.895562 693.156503 416.510809 686.968364 416.510809 697.588131 393.722263 691.985495 393.722263 704.988485 365.825495 717.989758 393.722263 712.387123 393.722263 723.00689 416.510809 716.818751 416.510809 728.650734 441.895562 721.375721 441.895562 735.381451 471.946959"></polygon>
        <polygon id="Fill-121" fill="#3D85A1" points="737.95389 457.958884 751.959619 427.909206 744.684607 427.909206 756.51659 402.522735 750.328451 402.522735 760.948217 379.734189 755.345582 379.734189 768.348572 351.83742 781.349845 379.734189 775.74721 379.734189 786.366977 402.522735 780.178838 402.522735 792.01082 427.909206 784.735808 427.909206 798.741538 457.958884"></polygon>
        <polygon id="Fill-122" fill="#3D85A1" points="384.862528 457.958884 398.868258 427.909206 391.593245 427.909206 403.425228 402.522735 397.237089 402.522735 407.856856 379.734189 402.254221 379.734189 415.257211 351.83742 428.258484 379.734189 422.655849 379.734189 433.275615 402.522735 427.087476 402.522735 438.919459 427.909206 431.644447 427.909206 445.650176 457.958884"></polygon>
        <polygon id="Fill-123" fill="#3D85A1" points="530.489321 452.071628 537.357399 437.334589 533.789432 437.334589 539.592959 424.884479 536.557268 424.884479 541.766706 413.709277 539.019474 413.709277 545.394768 400.027214 551.771779 413.709277 549.022831 413.709277 554.232269 424.884479 551.196578 424.884479 557.000104 437.334589 553.432137 437.334589 560.300216 452.071628"></polygon>
        <polygon id="Fill-124" fill="#3D85A1" points="492.514855 452.071628 499.382933 437.334589 495.814967 437.334589 501.618493 424.884479 498.582802 424.884479 503.79224 413.709277 501.045008 413.709277 507.420303 400.027214 513.797314 413.709277 511.048365 413.709277 516.257803 424.884479 513.222112 424.884479 519.025639 437.334589 515.457672 437.334589 522.32575 452.071628"></polygon>
        <polygon id="Fill-125" fill="#3D85A1" points="385.445285 446.143823 392.313364 431.406783 388.747114 431.406783 394.548923 418.956673 391.513232 418.956673 396.72267 407.781471 393.975439 407.781471 400.350733 394.099409 406.727744 407.781471 403.978795 407.781471 409.188233 418.956673 406.152542 418.956673 411.956069 431.406783 408.388102 431.406783 415.256181 446.143823"></polygon>
        <polygon id="Fill-126" fill="#3D85A1" points="354.087011 420.12196 360.95509 405.38492 357.387123 405.38492 363.190649 392.93481 360.154958 392.93481 365.364396 381.759608 362.617165 381.759608 368.992459 368.077546 375.36947 381.759608 372.620521 381.759608 377.829959 392.93481 374.794268 392.93481 380.597795 405.38492 377.029828 405.38492 383.897907 420.12196"></polygon>
        <polygon id="Fill-127" fill="#3D85A1" points="267.758009 403.347129 274.626087 388.610089 271.059837 388.610089 276.861647 376.15998 273.825956 376.15998 279.035394 364.984778 276.288162 364.984778 282.663456 351.302715 289.040468 364.984778 286.293236 364.984778 291.500957 376.15998 288.465266 376.15998 294.268792 388.610089 290.700826 388.610089 297.568904 403.347129"></polygon>
        <polygon id="Fill-128" fill="#3D85A1" points="624.084407 447.228697 630.952486 432.491657 627.386236 432.491657 633.188045 420.041548 630.152354 420.041548 635.361792 408.866346 632.614561 408.866346 638.989855 395.184283 645.366866 408.866346 642.617917 408.866346 647.827355 420.041548 644.791664 420.041548 650.595191 432.491657 647.027224 432.491657 653.895302 447.228697"></polygon>
        <polygon id="Fill-129" fill="#3D85A1" points="917.957305 429.198031 926.437665 411.002246 922.033509 411.002246 929.196916 395.631188 925.450379 395.631188 931.880617 381.832288 928.487786 381.832288 936.362039 364.94062 944.234574 381.832288 940.841743 381.832288 947.271982 395.631188 943.525445 395.631188 950.688851 411.002246 946.284695 411.002246 954.765056 429.198031"></polygon>
        <polygon id="Fill-130" fill="#3D85A1" points="699.45642 418.885883 708.925783 398.568115 704.008239 398.568115 712.006117 381.404971 707.82174 381.404971 715.004033 365.997831 711.216288 365.997831 720.005711 347.1371 728.795135 365.997831 725.009107 365.997831 732.189683 381.404971 728.005306 381.404971 736.004901 398.568115 731.085639 398.568115 740.555003 418.885883"></polygon>
        <polygon id="Fill-131" fill="#3D85A1" points="671.388471 459.208706 680.857834 438.890938 675.938573 438.890938 683.938168 421.727794 679.753791 421.727794 686.936084 406.320654 683.146621 406.320654 691.937762 387.459923 700.727186 406.320654 696.941158 406.320654 704.121734 421.727794 699.937357 421.727794 707.936952 438.890938 703.01769 438.890938 712.487054 459.208706"></polygon>
        <polygon id="Fill-132" fill="#3D85A1" points="460.055628 459.208706 469.524991 438.890938 464.60573 438.890938 472.605325 421.727794 468.420948 421.727794 475.601524 406.320654 471.815496 406.320654 480.604919 387.459923 489.394343 406.320654 485.608315 406.320654 492.787174 421.727794 488.604514 421.727794 496.602392 438.890938 491.684847 438.890938 501.154211 459.208706"></polygon>
        <polygon id="Fill-133" fill="#3D85A1" points="584.810844 477.596072 594.280207 457.278303 589.360946 457.278303 597.360541 440.115159 593.177881 440.115159 600.358457 424.708019 596.570712 424.708019 605.360135 405.847289 614.151276 424.708019 610.363531 424.708019 617.544107 440.115159 613.35973 440.115159 621.359325 457.278303 616.440063 457.278303 625.909427 477.596072"></polygon>
        <polygon id="Fill-134" fill="#3D85A1" points="558.319634 487.94602 567.788998 467.62997 562.869736 467.62997 570.869331 450.465107 566.684954 450.465107 573.86553 435.057968 570.077785 435.057968 578.868926 416.197237 587.658349 435.057968 583.872321 435.057968 591.05118 450.465107 586.86852 450.465107 594.868115 467.62997 589.948854 467.62997 599.418217 487.94602"></polygon>
        <polygon id="Fill-135" fill="#3D85A1" points="548.375686 477.596072 557.84505 457.278303 552.925788 457.278303 560.925383 440.115159 556.741006 440.115159 563.921582 424.708019 560.133837 424.708019 568.924978 405.847289 577.714402 424.708019 573.926656 424.708019 581.107232 440.115159 576.924572 440.115159 584.924167 457.278303 580.004906 457.278303 589.474269 477.596072"></polygon>
        <polygon id="Fill-136" fill="#3D85A1" points="507.995504 479.202421 517.464868 458.884653 512.545606 458.884653 520.545201 441.721508 516.360824 441.721508 523.543117 426.314369 519.755372 426.314369 528.544796 407.453638 537.334219 426.314369 533.548191 426.314369 540.728767 441.721508 536.54439 441.721508 544.543985 458.884653 539.624724 458.884653 549.094087 479.202421"></polygon>
        <polygon id="Fill-137" fill="#3D85A1" points="471.965735 468.771717 481.435098 448.453949 476.515837 448.453949 484.515432 431.290804 480.331055 431.290804 487.511631 415.883665 483.723886 415.883665 492.515026 397.022934 501.30445 415.883665 497.516705 415.883665 504.697281 431.290804 500.514621 431.290804 508.514216 448.453949 503.594954 448.453949 513.064318 468.771717"></polygon>
        <polygon id="Fill-138" fill="#3D85A1" points="635.973566 465.072423 645.44293 444.754655 640.523668 444.754655 648.523263 427.59151 644.338886 427.59151 651.521179 412.18437 647.733434 412.18437 656.522858 393.32364 665.312281 412.18437 661.526253 412.18437 668.706829 427.59151 664.522452 427.59151 672.52033 444.754655 667.602786 444.754655 677.072149 465.072423"></polygon>
        <polygon id="Fill-139" fill="#3D85A1" points="656.522858 435.284942 662.585654 422.274698 659.165351 422.274698 665.470247 408.75071 662.195891 408.75071 667.520369 397.324651 664.735363 397.324651 669.515546 387.06697 666.994961 387.06697 672.846564 374.510331 678.698167 387.06697 676.175865 387.06697 680.956048 397.324651 678.171042 397.324651 683.497237 408.75071 680.22288 408.75071 686.52606 422.274698 683.105756 422.274698 689.17027 435.284942"></polygon>
        <polygon id="Fill-140" fill="#3D85A1" points="789.488003 402.557614 795.5508 389.549088 792.130497 389.549088 798.435393 376.023382 795.161036 376.023382 800.485514 364.597322 797.700509 364.597322 802.480691 354.339642 799.960106 354.339642 805.811709 341.783003 811.663313 354.339642 809.141011 354.339642 813.921193 364.597322 811.136188 364.597322 816.462383 376.023382 813.188026 376.023382 819.491205 389.549088 816.070902 389.549088 822.135416 402.557614"></polygon>
        <polygon id="Fill-141" fill="#3D85A1" points="988.216548 408.630608 995.740528 392.48464 991.497773 392.48464 999.320514 375.699501 995.256329 375.699501 1001.86685 361.519159 998.408777 361.519159 1004.34108 348.788982 1001.21267 348.788982 1008.47566 333.206586 1015.73694 348.788982 1012.60853 348.788982 1018.54083 361.519159 1015.08447 361.519159 1021.69328 375.699501 1017.6291 375.699501 1025.45355 392.48464 1021.20908 392.48464 1028.73306 408.630608"></polygon>
        <polygon id="Fill-142" fill="#3D85A1" points="964.079887 432.897154 971.603868 416.751186 967.361112 416.751186 975.183854 399.966046 971.119668 399.966046 977.730194 385.785705 974.272116 385.785705 980.204419 373.055528 977.076009 373.055528 984.339003 357.473131 991.600279 373.055528 988.471869 373.055528 994.404172 385.785705 990.947811 385.785705 997.55662 399.966046 993.492435 399.966046 1001.31689 416.751186 997.072421 416.751186 1004.5964 432.897154"></polygon>
        <polygon id="Fill-143" fill="#3D85A1" points="851.683092 426.656979 858.233522 412.600348 854.808068 412.600348 860.68886 399.983572 857.586206 399.983572 864.785669 384.536914 871.983416 399.983572 868.882478 399.983572 874.761554 412.600348 871.336099 412.600348 877.88653 426.656979"></polygon>
        <polygon id="Fill-144" fill="#1F506E" points="0.098506727 475.734225 0.098506727 525.663529 0.098506727 531.221921 0.098506727 688.140382 642.689689 688.140382 676.296915 688.140382 829.539204 688.140382 1030.31032 688.140382 1030.31032 612.876153 1030.31032 600.914013 1030.31032 511.54848 1030.31032 457.072806 971.9471 484.309784 952.019369 475.010861 848.366325 523.38519 829.539204 514.596574 817.621371 520.158402 775.925265 500.699736 711.222812 530.89718 676.296915 514.596574 659.492443 522.440178 642.689689 514.596574 602.289933 533.45215 551.526246 509.759829 538.231362 515.964265 438.202947 469.282367 414.999143 480.11221 404.066878 475.010861 348.802883 500.80111 268.994091 463.555592 254.852717 470.155215 133.452557 413.49914 104.033142 427.227594 0.098506727 378.722682"></polygon>
        <polygon id="Fill-145" fill="#1F506E" points="308.926646 509.330106 298.887232 487.788976 304.101821 487.788976 295.619744 469.591472 300.056522 469.591472 292.443257 453.256502 296.459366 453.256502 287.139383 433.25832 277.8194 453.256502 281.83551 453.256502 274.222244 469.591472 278.657306 469.591472 270.176946 487.788976 275.391535 487.788976 265.352121 509.330106"></polygon>
        <polygon id="Fill-146" fill="#1F506E" points="201.754398 476.650028 191.714984 455.108899 196.929573 455.108899 188.447496 436.911395 192.884275 436.911395 185.271009 420.576425 189.287118 420.576425 179.967136 400.578243 170.647153 420.576425 174.663262 420.576425 167.049997 436.911395 171.485058 436.911395 163.004698 455.108899 168.219287 455.108899 158.179873 476.650028"></polygon>
        <polygon id="Fill-147" fill="#1F506E" points="519.736141 523.648419 509.696727 502.10729 514.911316 502.10729 506.429239 483.909786 510.866018 483.909786 503.252752 467.574816 507.268861 467.574816 497.948879 447.576634 488.628896 467.574816 492.645005 467.574816 485.03174 483.909786 489.466801 483.909786 480.986441 502.10729 486.20103 502.10729 476.161616 523.648419"></polygon>
        <polygon id="Fill-148" fill="#1F506E" points="634.130174 544.689723 624.09076 523.148594 629.305349 523.148594 620.823271 504.95109 625.26005 504.95109 617.646785 488.61612 621.662894 488.61612 612.342911 468.617938 603.022928 488.61612 607.039037 488.61612 599.425772 504.95109 603.860834 504.95109 595.380474 523.148594 600.595062 523.148594 590.555648 544.689723"></polygon>
        <polygon id="Fill-149" fill="#1F506E" points="759.461107 529.21145 751.470097 512.063769 755.620134 512.063769 748.868812 497.577587 752.400722 497.577587 746.339642 484.572497 749.536733 484.572497 742.117491 468.653333 734.698249 484.572497 737.895339 484.572497 731.83426 497.577587 735.366169 497.577587 728.614848 512.063769 732.764885 512.063769 724.773875 529.21145"></polygon>
        <polygon id="Fill-150" fill="#1F506E" points="930.423039 507.923755 922.430313 490.776075 926.582066 490.776075 919.830745 476.289893 923.360937 476.289893 917.301575 463.284803 920.498666 463.284803 913.079423 447.365638 905.660181 463.284803 908.857272 463.284803 902.796193 476.289893 906.328102 476.289893 899.575064 490.776075 903.726817 490.776075 895.734091 507.923755"></polygon>
        <polygon id="Fill-151" fill="#1F506E" points="1028.90597 506.577714 1016.98298 480.995367 1023.17627 480.995367 1013.10423 459.385509 1018.37205 459.385509 1009.33022 439.985263 1014.1001 439.985263 1003.0322 416.237958 991.964287 439.985263 996.734168 439.985263 987.692342 459.385509 992.960158 459.385509 982.888121 480.995367 989.081411 480.995367 977.158426 506.577714"></polygon>
        <polygon id="Fill-152" fill="#1F506E" points="890.658924 530.782404 878.735939 505.201776 884.929229 505.201776 874.857192 483.5902 880.125008 483.5902 871.083182 464.189953 875.853063 464.189953 864.785154 440.442649 853.717245 464.189953 858.487126 464.189953 849.4453 483.5902 854.713117 483.5902 844.641079 505.201776 850.834369 505.201776 838.911385 530.782404"></polygon>
        <polygon id="Fill-153" fill="#1F506E" points="672.84622 530.782404 660.923236 505.201776 667.116526 505.201776 657.044488 483.5902 662.312305 483.5902 653.270479 464.189953 658.04036 464.189953 646.972451 440.442649 635.904542 464.189953 640.672706 464.189953 631.632597 483.5902 636.900413 483.5902 626.828376 505.201776 633.019949 505.201776 621.098681 530.782404"></polygon>
        <polygon id="Fill-154" fill="#1F506E" points="839.809558 564.9111 823.513324 529.94392 831.978231 529.94392 818.211167 500.404549 825.410631 500.404549 813.05324 473.889217 819.571047 473.889217 804.444103 441.428898 789.315443 473.889217 795.83325 473.889217 783.475859 500.404549 790.677039 500.404549 776.909976 529.94392 785.373166 529.94392 769.076932 564.9111"></polygon>
        <polygon id="Fill-155" fill="#1F506E" points="537.080272 536.932717 529.089263 519.785036 533.239299 519.785036 526.487978 505.298854 530.019887 505.298854 523.958808 492.293765 527.155898 492.293765 519.736656 476.3746 512.317414 492.293765 515.514505 492.293765 509.453426 505.298854 512.985335 505.298854 506.234014 519.785036 510.38405 519.785036 502.393041 536.932717"></polygon>
        <polygon id="Fill-156" fill="#1F506E" points="590.354757 536.932717 582.36203 519.785036 586.513784 519.785036 579.762463 505.298854 583.292655 505.298854 577.233293 492.293765 580.430383 492.293765 573.011141 476.3746 565.591899 492.293765 568.78899 492.293765 562.72791 505.298854 566.25982 505.298854 559.506781 519.785036 563.658535 519.785036 555.665808 536.932717"></polygon>
        <polygon id="Fill-157" fill="#1F506E" points="709.281721 557.323337 701.290712 540.175656 705.440748 540.175656 698.689427 525.689474 702.221337 525.689474 696.160257 512.684385 699.357348 512.684385 691.938106 496.76522 684.518864 512.684385 687.715954 512.684385 681.654875 525.689474 685.186784 525.689474 678.435463 540.175656 682.585499 540.175656 674.59449 557.323337"></polygon>
        <polygon id="Fill-158" fill="#1F506E" points="497.948879 523.648419 489.956152 506.500738 494.107906 506.500738 487.356584 492.014556 490.886777 492.014556 484.827414 479.009467 488.024505 479.009467 480.605263 463.090302 473.186021 479.009467 476.383111 479.009467 470.322032 492.014556 473.853941 492.014556 467.100903 506.500738 471.252657 506.500738 463.25993 523.648419"></polygon>
        <polygon id="Fill-159" fill="#1F506E" points="473.99903 511.76085 466.00802 494.613169 470.158057 494.613169 463.406735 480.126987 466.938645 480.126987 460.877565 467.121897 464.074656 467.121897 456.655414 451.202732 449.236172 467.121897 452.433262 467.121897 446.372183 480.126987 449.904092 480.126987 443.152771 494.613169 447.302808 494.613169 439.311798 511.76085"></polygon>
        <polygon id="Fill-160" fill="#1F506E" points="138.826314 453.139493 126.17703 425.997016 132.746347 425.997016 122.059617 403.065859 127.650233 403.065859 118.057244 382.483488 123.117301 382.483488 111.372886 357.286019 99.6301885 382.483488 104.690246 382.483488 95.0972566 403.065859 100.686156 403.065859 89.9994251 425.997016 96.5704595 425.997016 83.9194585 453.139493"></polygon>
        <polygon id="Fill-161" fill="#1F506E" points="269.692403 483.863222 257.043119 456.720746 263.612436 456.720746 252.925706 433.789589 258.514605 433.789589 248.923333 413.207217 253.98339 413.207217 242.238975 388.009749 230.496278 413.207217 235.556335 413.207217 225.963346 433.789589 231.552245 433.789589 220.865514 456.720746 227.436549 456.720746 214.785548 483.863222"></polygon>
        <polygon id="Fill-162" fill="#1F506E" points="428.342274 496.765735 421.28704 481.628354 425.267092 481.628354 417.931984 465.889601 421.742051 465.889601 415.545327 452.594134 418.785343 452.594134 413.223916 440.659486 416.158303 440.659486 409.348603 426.049593 402.538903 440.659486 405.473289 440.659486 399.911862 452.594134 403.151879 452.594134 396.955155 465.889601 400.765221 465.889601 393.430113 481.628354 397.410165 481.628354 390.354931 496.765735"></polygon>
        <polygon id="Fill-163" fill="#1F506E" points="235.14528 471.294213 228.090046 456.156831 232.070098 456.156831 224.73499 440.418078 228.545056 440.418078 222.348332 427.122612 225.588349 427.122612 220.026922 415.187964 222.961308 415.187964 216.151608 400.578071 209.341908 415.187964 212.276295 415.187964 206.714868 427.122612 209.954884 427.122612 203.75816 440.418078 207.568227 440.418078 200.233119 456.156831 204.213171 456.156831 197.157937 471.294213"></polygon>
        <polygon id="Fill-164" fill="#1F506E" points="83.9201453 421.206834 75.1650619 402.419986 80.1032105 402.419986 70.9995722 382.889156 75.7282444 382.889156 68.0377132 366.38752 72.0606903 366.38752 65.1565542 351.576597 68.7983529 351.576597 60.347182 333.444385 51.8977282 351.576597 55.5378099 351.576597 48.6353908 366.38752 52.6583679 366.38752 44.9678368 382.889156 49.6947919 382.889156 40.5928706 402.419986 45.5310192 402.419986 36.7759359 421.206834"></polygon>
        <polygon id="Fill-165" fill="#1F506E" points="350.650739 502.150416 343.028889 485.794828 347.015809 485.794828 340.171768 471.112771 343.782661 471.112771 335.405322 453.140352 327.027983 471.112771 330.638875 471.112771 323.794835 485.794828 327.781754 485.794828 320.159904 502.150416"></polygon>
        <polygon id="Fill-166" fill="#1F506E" points="719.844998 586.432814 700.135329 544.142647 710.372201 544.142647 693.722261 508.417739 702.430985 508.417739 687.484328 476.347452 695.368883 476.347452 677.072321 437.088198 658.775759 476.347452 666.658597 476.347452 651.713657 508.417739 660.422381 508.417739 643.772441 544.142647 654.009313 544.142647 634.299644 586.432814"></polygon>
        <polygon id="Fill-167" fill="#1F506E" points="591.866936 603.883414 572.157267 561.593247 582.394139 561.593247 565.744199 525.868339 574.452923 525.868339 559.506266 493.798053 567.390821 493.798053 549.094259 454.538798 530.797697 493.798053 538.680535 493.798053 523.735595 525.868339 532.444319 525.868339 515.792662 561.593247 526.029534 561.593247 506.321582 603.883414"></polygon>
        <polygon id="Fill-168" fill="#1F506E" points="634.639957 625.993957 614.930288 583.70379 625.167159 583.70379 608.51722 547.978882 617.225943 547.978882 602.279287 515.908595 610.163841 515.908595 591.86728 476.649341 573.570718 515.908595 581.453555 515.908595 566.508616 547.978882 575.21734 547.978882 558.565683 583.70379 568.802554 583.70379 549.094602 625.993957"></polygon>
        <polygon id="Fill-169" fill="#1F506E" points="514.738584 582.59572 495.028915 540.305553 505.265786 540.305553 488.615846 504.580645 497.32457 504.580645 482.377914 472.510358 490.262468 472.510358 471.965907 433.251104 453.669345 472.510358 461.552182 472.510358 446.607243 504.580645 455.315967 504.580645 438.666027 540.305553 448.901181 540.305553 429.193229 582.59572"></polygon>
        <polygon id="Fill-170" fill="#1F506E" points="752.054742 619.361688 732.345073 577.07152 742.581945 577.07152 725.932005 541.346613 734.640729 541.346613 719.694072 509.276326 727.578627 509.276326 709.282065 470.017072 690.985503 509.276326 698.868341 509.276326 683.923401 541.346613 692.632125 541.346613 675.980468 577.07152 686.217339 577.07152 666.509388 619.361688"></polygon>
        <polygon id="Fill-171" fill="#1F506E" points="820.927321 605.454369 801.217652 563.164201 811.454523 563.164201 794.804583 527.439294 803.513307 527.439294 788.566651 495.369007 796.451205 495.369007 778.154643 456.109753 759.858082 495.369007 767.740919 495.369007 752.79598 527.439294 761.504703 527.439294 744.854764 563.164201 755.089918 563.164201 735.381966 605.454369"></polygon>
        <polygon id="Fill-172" fill="#1F506E" points="428.218134 584.00207 408.508465 541.711903 418.745336 541.711903 402.095396 505.986995 410.80412 505.986995 395.857464 473.916708 403.742018 473.916708 385.445456 434.657454 367.148895 473.916708 375.031732 473.916708 360.086793 505.986995 368.795517 505.986995 352.145577 541.711903 362.380731 541.711903 342.672779 584.00207"></polygon>
        <polygon id="Fill-173" fill="#1F506E" points="396.85986 603.883414 377.150191 561.593247 387.387062 561.593247 370.737122 525.868339 379.445846 525.868339 364.49919 493.798053 372.383744 493.798053 354.087183 454.538798 335.790621 493.798053 343.673458 493.798053 328.728519 525.868339 337.437243 525.868339 320.785586 561.593247 331.022457 561.593247 311.314505 603.883414"></polygon>
        <rect id="Rectangle" fill-opacity="0.534137228" fill="#174D5C" x="6" y="190" width="1024" height="498"></rect>
    </g>
</svg>